<svg width="77" height="30" viewBox="0 0 77 30" fill="none" xmlns="http://www.w3.org/2000/svg">
<path opacity="0.6" d="M28.4658 7.78125H30.3506V17.8496C30.3506 19.2103 29.9404 20.2747 29.1201 21.043C28.3063 21.8112 27.2191 22.1953 25.8584 22.1953C24.4456 22.1953 23.3454 21.834 22.5576 21.1113C21.7699 20.3887 21.376 19.3763 21.376 18.0742H23.251C23.251 18.888 23.4723 19.5228 23.915 19.9785C24.3643 20.4342 25.012 20.6621 25.8584 20.6621C26.6331 20.6621 27.2581 20.418 27.7334 19.9297C28.2152 19.4414 28.4593 18.7578 28.4658 17.8789V7.78125ZM39.7842 22C39.68 21.7917 39.5954 21.4206 39.5303 20.8867C38.6904 21.7591 37.6878 22.1953 36.5225 22.1953C35.4808 22.1953 34.6247 21.9023 33.9541 21.3164C33.29 20.724 32.958 19.9753 32.958 19.0703C32.958 17.9701 33.3747 17.1172 34.208 16.5117C35.0479 15.8997 36.2262 15.5938 37.7432 15.5938H39.501V14.7637C39.501 14.1322 39.3122 13.6309 38.9346 13.2598C38.557 12.8822 38.0003 12.6934 37.2646 12.6934C36.6201 12.6934 36.0798 12.8561 35.6436 13.1816C35.2074 13.5072 34.9893 13.901 34.9893 14.3633H33.1729C33.1729 13.8359 33.3584 13.3281 33.7295 12.8398C34.1071 12.3451 34.6149 11.9544 35.2529 11.668C35.8975 11.3815 36.6038 11.2383 37.3721 11.2383C38.5895 11.2383 39.5433 11.5443 40.2334 12.1562C40.9235 12.7617 41.2816 13.5983 41.3076 14.666V19.5293C41.3076 20.4993 41.4313 21.2708 41.6787 21.8438V22H39.7842ZM36.7861 20.623C37.3525 20.623 37.8896 20.4766 38.3975 20.1836C38.9053 19.8906 39.2731 19.5098 39.501 19.041V16.873H38.085C35.8714 16.873 34.7646 17.5208 34.7646 18.8164C34.7646 19.3828 34.9535 19.8255 35.3311 20.1445C35.7087 20.4635 36.1937 20.623 36.7861 20.623ZM53.0654 16.834C53.0654 18.4421 52.6976 19.7376 51.9619 20.7207C51.2262 21.7038 50.2301 22.1953 48.9736 22.1953C47.6911 22.1953 46.682 21.7884 45.9463 20.9746V26.0625H44.1396V11.4336H45.79L45.8779 12.6055C46.6136 11.694 47.6357 11.2383 48.9443 11.2383C50.2139 11.2383 51.2165 11.7168 51.9521 12.6738C52.6943 13.6309 53.0654 14.9622 53.0654 16.668V16.834ZM51.2588 16.6289C51.2588 15.4375 51.0049 14.4967 50.4971 13.8066C49.9893 13.1165 49.2926 12.7715 48.4072 12.7715C47.3135 12.7715 46.4932 13.2565 45.9463 14.2266V19.2754C46.4867 20.2389 47.3135 20.7207 48.4268 20.7207C49.2926 20.7207 49.9795 20.3789 50.4873 19.6953C51.0016 19.0052 51.2588 17.9831 51.2588 16.6289ZM61.8936 22C61.7894 21.7917 61.7048 21.4206 61.6396 20.8867C60.7998 21.7591 59.7972 22.1953 58.6318 22.1953C57.5902 22.1953 56.734 21.9023 56.0635 21.3164C55.3994 20.724 55.0674 19.9753 55.0674 19.0703C55.0674 17.9701 55.484 17.1172 56.3174 16.5117C57.1572 15.8997 58.3356 15.5938 59.8525 15.5938H61.6104V14.7637C61.6104 14.1322 61.4215 13.6309 61.0439 13.2598C60.6663 12.8822 60.1097 12.6934 59.374 12.6934C58.7295 12.6934 58.1891 12.8561 57.7529 13.1816C57.3167 13.5072 57.0986 13.901 57.0986 14.3633H55.2822C55.2822 13.8359 55.4678 13.3281 55.8389 12.8398C56.2165 12.3451 56.7243 11.9544 57.3623 11.668C58.0068 11.3815 58.7132 11.2383 59.4814 11.2383C60.6989 11.2383 61.6527 11.5443 62.3428 12.1562C63.0329 12.7617 63.391 13.5983 63.417 14.666V19.5293C63.417 20.4993 63.5407 21.2708 63.7881 21.8438V22H61.8936ZM58.8955 20.623C59.4619 20.623 59.999 20.4766 60.5068 20.1836C61.0146 19.8906 61.3825 19.5098 61.6104 19.041V16.873H60.1943C57.9808 16.873 56.874 17.5208 56.874 18.8164C56.874 19.3828 57.0628 19.8255 57.4404 20.1445C57.818 20.4635 58.3031 20.623 58.8955 20.623ZM67.958 11.4336L68.0166 12.7617C68.8239 11.7461 69.8786 11.2383 71.1807 11.2383C73.4137 11.2383 74.54 12.498 74.5596 15.0176V22H72.7529V15.0078C72.7464 14.2461 72.5706 13.6829 72.2256 13.3184C71.887 12.9538 71.3564 12.7715 70.6338 12.7715C70.0479 12.7715 69.5335 12.9277 69.0908 13.2402C68.6481 13.5527 68.3031 13.9629 68.0557 14.4707V22H66.249V11.4336H67.958Z" fill="black"/>
<path d="M5.4302 13.5154C6.02989 13.5154 6.51603 13.0293 6.51603 12.4296C6.51603 11.8299 6.02989 11.3438 5.4302 11.3438C4.83051 11.3438 4.34436 11.8299 4.34436 12.4296C4.34436 13.0293 4.83051 13.5154 5.4302 13.5154Z" fill="#FC1200"/>
<path d="M5.42918 7C2.43567 7 0 9.32946 0 12.1917C0 13.5547 0.621302 15.3674 1.8466 17.5794C2.83064 19.3555 3.96907 20.9615 4.56119 21.7606C4.66124 21.8971 4.79207 22.0082 4.94305 22.0847C5.09403 22.1612 5.26092 22.2011 5.4302 22.2011C5.59947 22.2011 5.76637 22.1612 5.91735 22.0847C6.06833 22.0082 6.19915 21.8971 6.29921 21.7606C6.89031 20.9615 8.02976 19.3555 9.0138 17.5794C10.2371 15.3681 10.8584 13.5554 10.8584 12.1917C10.8584 9.32946 8.42269 7 5.42918 7ZM5.42918 14.6009C4.99966 14.6009 4.57979 14.4735 4.22266 14.2349C3.86553 13.9962 3.58719 13.6571 3.42282 13.2602C3.25845 12.8634 3.21544 12.4268 3.29924 12.0055C3.38303 11.5842 3.58986 11.1973 3.89358 10.8936C4.19729 10.5899 4.58425 10.383 5.00551 10.2992C5.42677 10.2154 5.86342 10.2584 6.26024 10.4228C6.65706 10.5872 6.99623 10.8655 7.23486 11.2227C7.47349 11.5798 7.60085 11.9997 7.60085 12.4292C7.60022 13.005 7.37122 13.557 6.96409 13.9641C6.55696 14.3712 6.00495 14.6002 5.42918 14.6009Z" fill="#FC1200"/>
</svg>
