<svg width="105" height="30" viewBox="0 0 105 30" fill="none" xmlns="http://www.w3.org/2000/svg">
<path opacity="0.6" d="M32.4365 22H30.5518L23.3936 11.043V22H21.5088V7.78125H23.3936L30.5713 18.7871V7.78125H32.4365V22ZM39.8682 22.1953C38.4359 22.1953 37.2705 21.7266 36.3721 20.7891C35.4736 19.8451 35.0244 18.5853 35.0244 17.0098V16.6777C35.0244 15.6296 35.223 14.6953 35.6201 13.875C36.0238 13.0482 36.5837 12.4036 37.2998 11.9414C38.0225 11.4727 38.8037 11.2383 39.6436 11.2383C41.0173 11.2383 42.085 11.6908 42.8467 12.5957C43.6084 13.5007 43.9893 14.7962 43.9893 16.4824V17.2344H36.8311C36.8571 18.276 37.1598 19.1191 37.7393 19.7637C38.3252 20.4017 39.0674 20.7207 39.9658 20.7207C40.6038 20.7207 41.1442 20.5905 41.5869 20.3301C42.0296 20.0697 42.417 19.7246 42.749 19.2949L43.8525 20.1543C42.9671 21.515 41.639 22.1953 39.8682 22.1953ZM39.6436 12.7227C38.9144 12.7227 38.3024 12.9896 37.8076 13.5234C37.3128 14.0508 37.0068 14.793 36.8896 15.75H42.1826V15.6133C42.1305 14.6953 41.8831 13.9857 41.4404 13.4844C40.9977 12.9766 40.3988 12.7227 39.6436 12.7227ZM55.4443 19.5098L57.4756 11.4336H59.2822L56.2061 22H54.7412L52.1729 13.9922L49.6729 22H48.208L45.1416 11.4336H46.9385L49.0186 19.3438L51.4795 11.4336H52.9346L55.4443 19.5098ZM70.708 14.9199L74.4189 7.78125H76.5479L71.6455 16.6973V22H69.7705V16.6973L64.8682 7.78125H67.0166L70.708 14.9199ZM76.9775 16.6191C76.9775 15.584 77.1794 14.653 77.583 13.8262C77.9932 12.9993 78.5596 12.3613 79.2822 11.9121C80.0114 11.4629 80.8415 11.2383 81.7725 11.2383C83.2113 11.2383 84.3734 11.7363 85.2588 12.7324C86.1507 13.7285 86.5967 15.0534 86.5967 16.707V16.834C86.5967 17.8626 86.3981 18.7871 86.001 19.6074C85.6104 20.4212 85.0472 21.056 84.3115 21.5117C83.5824 21.9674 82.7425 22.1953 81.792 22.1953C80.3597 22.1953 79.1976 21.6973 78.3057 20.7012C77.4202 19.7051 76.9775 18.3867 76.9775 16.7461V16.6191ZM78.7939 16.834C78.7939 18.0059 79.0641 18.9466 79.6045 19.6562C80.1514 20.3659 80.8805 20.7207 81.792 20.7207C82.71 20.7207 83.4391 20.3626 83.9795 19.6465C84.5199 18.9238 84.79 17.9147 84.79 16.6191C84.79 15.4603 84.5133 14.5228 83.96 13.8066C83.4131 13.084 82.6839 12.7227 81.7725 12.7227C80.8805 12.7227 80.1611 13.0775 79.6143 13.7871C79.0674 14.4967 78.7939 15.5124 78.7939 16.834ZM93.9697 13.0547C93.6963 13.0091 93.4001 12.9863 93.0811 12.9863C91.8962 12.9863 91.0921 13.4909 90.6689 14.5V22H88.8623V11.4336H90.6201L90.6494 12.6543C91.2419 11.7103 92.0817 11.2383 93.1689 11.2383C93.5205 11.2383 93.7874 11.2839 93.9697 11.375V13.0547ZM98.5889 17.1074L97.4561 18.2891V22H95.6494V7H97.4561V16.0723L98.4229 14.9102L101.714 11.4336H103.911L99.7998 15.8477L104.39 22H102.271L98.5889 17.1074Z" fill="black"/>
<path d="M4.42879 13.5146C5.02848 13.5146 5.51463 13.0285 5.51463 12.4288C5.51463 11.8291 5.02848 11.343 4.42879 11.343C3.8291 11.343 3.34296 11.8291 3.34296 12.4288C3.34296 13.0285 3.8291 13.5146 4.42879 13.5146Z" fill="#FC1200"/>
<path d="M4.42918 7C1.43567 7 -1 9.32946 -1 12.1917C-1 13.5547 -0.378698 15.3674 0.8466 17.5794C1.83064 19.3555 2.96907 20.9615 3.56119 21.7606C3.66124 21.8971 3.79207 22.0082 3.94305 22.0847C4.09403 22.1612 4.26092 22.2011 4.4302 22.2011C4.59947 22.2011 4.76637 22.1612 4.91735 22.0847C5.06833 22.0082 5.19915 21.8971 5.29921 21.7606C5.89031 20.9615 7.02976 19.3555 8.0138 17.5794C9.23706 15.3681 9.85836 13.5554 9.85836 12.1917C9.85836 9.32946 7.42269 7 4.42918 7ZM4.42918 14.6009C3.99966 14.6009 3.57979 14.4735 3.22266 14.2349C2.86553 13.9962 2.58719 13.6571 2.42282 13.2602C2.25845 12.8634 2.21544 12.4268 2.29924 12.0055C2.38303 11.5842 2.58986 11.1973 2.89358 10.8936C3.19729 10.5899 3.58425 10.383 4.00551 10.2992C4.42677 10.2154 4.86342 10.2584 5.26024 10.4228C5.65706 10.5872 5.99623 10.8655 6.23486 11.2227C6.47349 11.5798 6.60085 11.9997 6.60085 12.4292C6.60022 13.005 6.37122 13.557 5.96409 13.9641C5.55696 14.3712 5.00495 14.6002 4.42918 14.6009Z" fill="#FC1200"/>
</svg>
