<svg width="60" height="27" viewBox="0 0 60 27" fill="none" xmlns="http://www.w3.org/2000/svg">
<path d="M42.7861 15.7021H44.5615V17.0293H42.7861V20H41.1514V17.0293H35.3242V16.0713L41.0547 7.20312H42.7861V15.7021ZM37.1699 15.7021H41.1514V9.42676L40.958 9.77832L37.1699 15.7021ZM46.2314 19.1475C46.2314 18.8662 46.3135 18.6318 46.4775 18.4443C46.6475 18.2568 46.8994 18.1631 47.2334 18.1631C47.5674 18.1631 47.8193 18.2568 47.9893 18.4443C48.165 18.6318 48.2529 18.8662 48.2529 19.1475C48.2529 19.417 48.165 19.6426 47.9893 19.8242C47.8193 20.0059 47.5674 20.0967 47.2334 20.0967C46.8994 20.0967 46.6475 20.0059 46.4775 19.8242C46.3135 19.6426 46.2314 19.417 46.2314 19.1475ZM57.0068 14.375C56.667 14.7793 56.2598 15.1045 55.7852 15.3506C55.3164 15.5967 54.8008 15.7197 54.2383 15.7197C53.5 15.7197 52.8555 15.5381 52.3047 15.1748C51.7598 14.8115 51.3379 14.3018 51.0391 13.6455C50.7402 12.9834 50.5908 12.2539 50.5908 11.457C50.5908 10.6016 50.752 9.83105 51.0742 9.14551C51.4023 8.45996 51.8652 7.93555 52.4629 7.57227C53.0605 7.20898 53.7578 7.02734 54.5547 7.02734C55.8203 7.02734 56.8164 7.50195 57.543 8.45117C58.2754 9.39453 58.6416 10.6836 58.6416 12.3184V12.793C58.6416 15.2832 58.1494 17.1025 57.165 18.251C56.1807 19.3936 54.6953 19.9795 52.709 20.0088H52.3926V18.6377H52.7354C54.0771 18.6143 55.1084 18.2656 55.8291 17.5918C56.5498 16.9121 56.9424 15.8398 57.0068 14.375ZM54.502 14.375C55.0469 14.375 55.5479 14.208 56.0049 13.874C56.4678 13.54 56.8047 13.127 57.0156 12.6348V11.9844C57.0156 10.918 56.7842 10.0508 56.3213 9.38281C55.8584 8.71484 55.2725 8.38086 54.5635 8.38086C53.8486 8.38086 53.2744 8.65625 52.8408 9.20703C52.4072 9.75195 52.1904 10.4727 52.1904 11.3691C52.1904 12.2422 52.3984 12.9629 52.8145 13.5312C53.2363 14.0938 53.7988 14.375 54.502 14.375Z" fill="black"/>
<path d="M12.3829 2.46353C12.5325 2.00287 13.1843 2.00287 13.3339 2.46353L15.4403 8.9463C15.5072 9.15232 15.6992 9.2918 15.9158 9.2918H22.7322C23.2166 9.2918 23.418 9.9116 23.0261 10.1963L17.5115 14.2029C17.3363 14.3302 17.263 14.5559 17.3299 14.7619L19.4363 21.2447C19.586 21.7053 19.0587 22.0884 18.6669 21.8037L13.1523 17.7971C12.977 17.6698 12.7397 17.6698 12.5645 17.7971L7.04993 21.8037C6.65807 22.0884 6.13083 21.7053 6.2805 21.2447L8.38689 14.7619C8.45382 14.5559 8.38049 14.3302 8.20525 14.2029L2.69067 10.1963C2.29881 9.9116 2.5002 9.2918 2.98456 9.2918H9.80096C10.0176 9.2918 10.2095 9.15232 10.2765 8.9463L12.3829 2.46353Z" fill="#FFC700"/>
</svg>
