<svg width="60" height="27" viewBox="0 0 60 27" fill="none" xmlns="http://www.w3.org/2000/svg">
<path d="M42.7861 15.7021H44.5615V17.0293H42.7861V20H41.1514V17.0293H35.3242V16.0713L41.0547 7.20312H42.7861V15.7021ZM37.1699 15.7021H41.1514V9.42676L40.958 9.77832L37.1699 15.7021ZM46.2314 19.1475C46.2314 18.8662 46.3135 18.6318 46.4775 18.4443C46.6475 18.2568 46.8994 18.1631 47.2334 18.1631C47.5674 18.1631 47.8193 18.2568 47.9893 18.4443C48.165 18.6318 48.2529 18.8662 48.2529 19.1475C48.2529 19.417 48.165 19.6426 47.9893 19.8242C47.8193 20.0059 47.5674 20.0967 47.2334 20.0967C46.8994 20.0967 46.6475 20.0059 46.4775 19.8242C46.3135 19.6426 46.2314 19.417 46.2314 19.1475ZM57.1562 7.19434V8.57422H56.8574C55.5918 8.59766 54.584 8.97266 53.834 9.69922C53.084 10.4258 52.6504 11.4482 52.5332 12.7666C53.207 11.9932 54.127 11.6064 55.293 11.6064C56.4062 11.6064 57.2939 11.999 57.9561 12.7842C58.624 13.5693 58.958 14.583 58.958 15.8252C58.958 17.1436 58.5977 18.1982 57.877 18.9893C57.1621 19.7803 56.2012 20.1758 54.9941 20.1758C53.7695 20.1758 52.7764 19.707 52.0146 18.7695C51.2529 17.8262 50.8721 16.6133 50.8721 15.1309V14.5068C50.8721 12.1514 51.373 10.3525 52.375 9.11035C53.3828 7.8623 54.8799 7.22363 56.8662 7.19434H57.1562ZM55.0205 12.96C54.4639 12.96 53.9512 13.127 53.4824 13.4609C53.0137 13.7949 52.6885 14.2139 52.5068 14.7178V15.3154C52.5068 16.3701 52.7441 17.2197 53.2188 17.8643C53.6934 18.5088 54.2852 18.8311 54.9941 18.8311C55.7266 18.8311 56.3008 18.5615 56.7168 18.0225C57.1387 17.4834 57.3496 16.7773 57.3496 15.9043C57.3496 15.0254 57.1357 14.3164 56.708 13.7773C56.2861 13.2324 55.7236 12.96 55.0205 12.96Z" fill="black"/>
<path d="M12.3829 2.46353C12.5325 2.00287 13.1843 2.00287 13.3339 2.46353L15.4403 8.9463C15.5072 9.15232 15.6992 9.2918 15.9158 9.2918H22.7322C23.2166 9.2918 23.418 9.9116 23.0261 10.1963L17.5115 14.2029C17.3363 14.3302 17.263 14.5559 17.3299 14.7619L19.4363 21.2447C19.586 21.7053 19.0587 22.0884 18.6669 21.8037L13.1523 17.7971C12.977 17.6698 12.7397 17.6698 12.5645 17.7971L7.04993 21.8037C6.65807 22.0884 6.13083 21.7053 6.2805 21.2447L8.38689 14.7619C8.45382 14.5559 8.38049 14.3302 8.20525 14.2029L2.69067 10.1963C2.29881 9.9116 2.5002 9.2918 2.98456 9.2918H9.80096C10.0176 9.2918 10.2095 9.15232 10.2765 8.9463L12.3829 2.46353Z" fill="#FFC700"/>
</svg>
