<svg width="60" height="27" viewBox="0 0 60 27" fill="none" xmlns="http://www.w3.org/2000/svg">
<path d="M42.7861 15.7021H44.5615V17.0293H42.7861V20H41.1514V17.0293H35.3242V16.0713L41.0547 7.20312H42.7861V15.7021ZM37.1699 15.7021H41.1514V9.42676L40.958 9.77832L37.1699 15.7021ZM46.2314 19.1475C46.2314 18.8662 46.3135 18.6318 46.4775 18.4443C46.6475 18.2568 46.8994 18.1631 47.2334 18.1631C47.5674 18.1631 47.8193 18.2568 47.9893 18.4443C48.165 18.6318 48.2529 18.8662 48.2529 19.1475C48.2529 19.417 48.165 19.6426 47.9893 19.8242C47.8193 20.0059 47.5674 20.0967 47.2334 20.0967C46.8994 20.0967 46.6475 20.0059 46.4775 19.8242C46.3135 19.6426 46.2314 19.417 46.2314 19.1475ZM59.0371 8.11719L53.7373 20H52.0322L57.3145 8.53906H50.3887V7.20312H59.0371V8.11719Z" fill="black"/>
<path d="M12.3829 2.46353C12.5325 2.00287 13.1843 2.00287 13.3339 2.46353L15.4403 8.9463C15.5072 9.15232 15.6992 9.2918 15.9158 9.2918H22.7322C23.2166 9.2918 23.418 9.9116 23.0261 10.1963L17.5115 14.2029C17.3363 14.3302 17.263 14.5559 17.3299 14.7619L19.4363 21.2447C19.586 21.7053 19.0587 22.0884 18.6669 21.8037L13.1523 17.7971C12.977 17.6698 12.7397 17.6698 12.5645 17.7971L7.04993 21.8037C6.65807 22.0884 6.13083 21.7053 6.2805 21.2447L8.38689 14.7619C8.45382 14.5559 8.38049 14.3302 8.20525 14.2029L2.69067 10.1963C2.29881 9.9116 2.5002 9.2918 2.98456 9.2918H9.80096C10.0176 9.2918 10.2095 9.15232 10.2765 8.9463L12.3829 2.46353Z" fill="#FFC700"/>
</svg>
