<svg width="126" height="30" viewBox="0 0 126 30" fill="none" xmlns="http://www.w3.org/2000/svg">
<path opacity="0.6" d="M22.5088 22V7.78125H27.1572C28.7002 7.78125 29.859 8.10026 30.6338 8.73828C31.415 9.3763 31.8057 10.3203 31.8057 11.5703C31.8057 12.2344 31.6169 12.8236 31.2393 13.3379C30.8617 13.8457 30.3473 14.2396 29.6963 14.5195C30.4645 14.7344 31.07 15.1445 31.5127 15.75C31.9619 16.349 32.1865 17.0651 32.1865 17.8984C32.1865 19.1745 31.7731 20.1771 30.9463 20.9062C30.1195 21.6354 28.9508 22 27.4404 22H22.5088ZM24.3838 15.3496V20.4668H27.4795C28.3519 20.4668 29.0387 20.2422 29.54 19.793C30.0479 19.3372 30.3018 18.7122 30.3018 17.918C30.3018 16.2057 29.3708 15.3496 27.5088 15.3496H24.3838ZM24.3838 13.8457H27.2158C28.0361 13.8457 28.6904 13.6406 29.1787 13.2305C29.6735 12.8203 29.9209 12.2637 29.9209 11.5605C29.9209 10.7793 29.693 10.2129 29.2373 9.86133C28.7816 9.50326 28.0882 9.32422 27.1572 9.32422H24.3838V13.8457ZM41.21 22C41.1058 21.7917 41.0212 21.4206 40.9561 20.8867C40.1162 21.7591 39.1136 22.1953 37.9482 22.1953C36.9066 22.1953 36.0505 21.9023 35.3799 21.3164C34.7158 20.724 34.3838 19.9753 34.3838 19.0703C34.3838 17.9701 34.8005 17.1172 35.6338 16.5117C36.4736 15.8997 37.652 15.5938 39.1689 15.5938H40.9268V14.7637C40.9268 14.1322 40.738 13.6309 40.3604 13.2598C39.9827 12.8822 39.4261 12.6934 38.6904 12.6934C38.0459 12.6934 37.5055 12.8561 37.0693 13.1816C36.6331 13.5072 36.415 13.901 36.415 14.3633H34.5986C34.5986 13.8359 34.7842 13.3281 35.1553 12.8398C35.5329 12.3451 36.0407 11.9544 36.6787 11.668C37.3232 11.3815 38.0296 11.2383 38.7979 11.2383C40.0153 11.2383 40.9691 11.5443 41.6592 12.1562C42.3493 12.7617 42.7074 13.5983 42.7334 14.666V19.5293C42.7334 20.4993 42.8571 21.2708 43.1045 21.8438V22H41.21ZM38.2119 20.623C38.7783 20.623 39.3154 20.4766 39.8232 20.1836C40.3311 19.8906 40.6989 19.5098 40.9268 19.041V16.873H39.5107C37.2972 16.873 36.1904 17.5208 36.1904 18.8164C36.1904 19.3828 36.3792 19.8255 36.7568 20.1445C37.1344 20.4635 37.6195 20.623 38.2119 20.623ZM47.2744 11.4336L47.333 12.7617C48.1403 11.7461 49.195 11.2383 50.4971 11.2383C52.7301 11.2383 53.8564 12.498 53.876 15.0176V22H52.0693V15.0078C52.0628 14.2461 51.887 13.6829 51.542 13.3184C51.2035 12.9538 50.6729 12.7715 49.9502 12.7715C49.3643 12.7715 48.8499 12.9277 48.4072 13.2402C47.9645 13.5527 47.6195 13.9629 47.3721 14.4707V22H45.5654V11.4336H47.2744ZM56.1709 16.6289C56.1709 14.9818 56.5518 13.6732 57.3135 12.7031C58.0752 11.7266 59.0843 11.2383 60.3408 11.2383C61.6299 11.2383 62.6357 11.694 63.3584 12.6055L63.4463 11.4336H65.0967V21.7461C65.0967 23.1133 64.6898 24.1908 63.876 24.9785C63.0687 25.7663 61.9814 26.1602 60.6143 26.1602C59.8525 26.1602 59.1071 25.9974 58.3779 25.6719C57.6488 25.3464 57.0921 24.9004 56.708 24.334L57.6455 23.25C58.4202 24.207 59.3675 24.6855 60.4873 24.6855C61.3662 24.6855 62.0498 24.4382 62.5381 23.9434C63.0329 23.4486 63.2803 22.752 63.2803 21.8535V20.9453C62.5576 21.7786 61.5713 22.1953 60.3213 22.1953C59.0843 22.1953 58.0817 21.6973 57.3135 20.7012C56.5518 19.7051 56.1709 18.3477 56.1709 16.6289ZM57.9873 16.834C57.9873 18.0254 58.2314 18.9629 58.7197 19.6465C59.208 20.3236 59.8916 20.6621 60.7705 20.6621C61.9098 20.6621 62.7464 20.1445 63.2803 19.1094V14.2852C62.7269 13.276 61.8968 12.7715 60.79 12.7715C59.9111 12.7715 59.2243 13.1133 58.7295 13.7969C58.2347 14.4805 57.9873 15.4928 57.9873 16.834ZM69.7939 22H67.9873V7H69.7939V22ZM79.2178 22C79.1136 21.7917 79.029 21.4206 78.9639 20.8867C78.124 21.7591 77.1214 22.1953 75.9561 22.1953C74.9144 22.1953 74.0583 21.9023 73.3877 21.3164C72.7236 20.724 72.3916 19.9753 72.3916 19.0703C72.3916 17.9701 72.8083 17.1172 73.6416 16.5117C74.4814 15.8997 75.6598 15.5938 77.1768 15.5938H78.9346V14.7637C78.9346 14.1322 78.7458 13.6309 78.3682 13.2598C77.9906 12.8822 77.4339 12.6934 76.6982 12.6934C76.0537 12.6934 75.5133 12.8561 75.0771 13.1816C74.641 13.5072 74.4229 13.901 74.4229 14.3633H72.6064C72.6064 13.8359 72.792 13.3281 73.1631 12.8398C73.5407 12.3451 74.0485 11.9544 74.6865 11.668C75.3311 11.3815 76.0374 11.2383 76.8057 11.2383C78.0231 11.2383 78.9769 11.5443 79.667 12.1562C80.3571 12.7617 80.7152 13.5983 80.7412 14.666V19.5293C80.7412 20.4993 80.8649 21.2708 81.1123 21.8438V22H79.2178ZM76.2197 20.623C76.7861 20.623 77.3232 20.4766 77.8311 20.1836C78.3389 19.8906 78.7067 19.5098 78.9346 19.041V16.873H77.5186C75.305 16.873 74.1982 17.5208 74.1982 18.8164C74.1982 19.3828 74.387 19.8255 74.7646 20.1445C75.1423 20.4635 75.6273 20.623 76.2197 20.623ZM83.1338 16.6289C83.1338 15.0078 83.5179 13.7057 84.2861 12.7227C85.0544 11.7331 86.0602 11.2383 87.3037 11.2383C88.5407 11.2383 89.5205 11.6615 90.2432 12.5078V7H92.0498V22H90.3896L90.3018 20.8672C89.5791 21.7526 88.5732 22.1953 87.2842 22.1953C86.0602 22.1953 85.0609 21.694 84.2861 20.6914C83.5179 19.6888 83.1338 18.3802 83.1338 16.7656V16.6289ZM84.9404 16.834C84.9404 18.0319 85.1878 18.9694 85.6826 19.6465C86.1774 20.3236 86.861 20.6621 87.7334 20.6621C88.8792 20.6621 89.7158 20.1478 90.2432 19.1191V14.2656C89.7028 13.2695 88.8727 12.7715 87.7529 12.7715C86.8675 12.7715 86.1774 13.1133 85.6826 13.7969C85.1878 14.4805 84.9404 15.4928 84.9404 16.834ZM99.2471 22.1953C97.8148 22.1953 96.6494 21.7266 95.751 20.7891C94.8525 19.8451 94.4033 18.5853 94.4033 17.0098V16.6777C94.4033 15.6296 94.6019 14.6953 94.999 13.875C95.4027 13.0482 95.9626 12.4036 96.6787 11.9414C97.4014 11.4727 98.1826 11.2383 99.0225 11.2383C100.396 11.2383 101.464 11.6908 102.226 12.5957C102.987 13.5007 103.368 14.7962 103.368 16.4824V17.2344H96.21C96.236 18.276 96.5387 19.1191 97.1182 19.7637C97.7041 20.4017 98.4463 20.7207 99.3447 20.7207C99.9827 20.7207 100.523 20.5905 100.966 20.3301C101.409 20.0697 101.796 19.7246 102.128 19.2949L103.231 20.1543C102.346 21.515 101.018 22.1953 99.2471 22.1953ZM99.0225 12.7227C98.2933 12.7227 97.6813 12.9896 97.1865 13.5234C96.6917 14.0508 96.3857 14.793 96.2686 15.75H101.562V15.6133C101.509 14.6953 101.262 13.9857 100.819 13.4844C100.377 12.9766 99.7777 12.7227 99.0225 12.7227ZM111.62 19.1973C111.62 18.709 111.435 18.3314 111.063 18.0645C110.699 17.791 110.058 17.5566 109.14 17.3613C108.228 17.166 107.502 16.9316 106.962 16.6582C106.428 16.3848 106.031 16.0592 105.771 15.6816C105.517 15.304 105.39 14.8548 105.39 14.334C105.39 13.4681 105.754 12.7357 106.483 12.1367C107.219 11.5378 108.157 11.2383 109.296 11.2383C110.494 11.2383 111.464 11.5475 112.206 12.166C112.955 12.7845 113.329 13.5755 113.329 14.5391H111.513C111.513 14.0443 111.301 13.6178 110.878 13.2598C110.461 12.9017 109.934 12.7227 109.296 12.7227C108.638 12.7227 108.124 12.8659 107.753 13.1523C107.382 13.4388 107.196 13.8132 107.196 14.2754C107.196 14.7116 107.369 15.0404 107.714 15.2617C108.059 15.4831 108.681 15.6947 109.579 15.8965C110.484 16.0983 111.216 16.3392 111.776 16.6191C112.336 16.8991 112.75 17.2376 113.017 17.6348C113.29 18.0254 113.427 18.5039 113.427 19.0703C113.427 20.0143 113.049 20.7728 112.294 21.3457C111.539 21.9121 110.559 22.1953 109.354 22.1953C108.508 22.1953 107.759 22.0456 107.108 21.7461C106.457 21.4466 105.946 21.0299 105.575 20.4961C105.211 19.9557 105.028 19.373 105.028 18.748H106.835C106.868 19.3535 107.108 19.8353 107.558 20.1934C108.013 20.5449 108.612 20.7207 109.354 20.7207C110.038 20.7207 110.585 20.584 110.995 20.3105C111.412 20.0306 111.62 19.6595 111.62 19.1973ZM117.587 12.7129C118.388 11.7298 119.429 11.2383 120.712 11.2383C122.945 11.2383 124.071 12.498 124.091 15.0176V22H122.284V15.0078C122.278 14.2461 122.102 13.6829 121.757 13.3184C121.418 12.9538 120.888 12.7715 120.165 12.7715C119.579 12.7715 119.065 12.9277 118.622 13.2402C118.179 13.5527 117.834 13.9629 117.587 14.4707V22H115.78V7H117.587V12.7129Z" fill="black"/>
<path d="M5.43017 13.5154C6.02986 13.5154 6.516 13.0293 6.516 12.4296C6.516 11.8299 6.02986 11.3438 5.43017 11.3438C4.83048 11.3438 4.34433 11.8299 4.34433 12.4296C4.34433 13.0293 4.83048 13.5154 5.43017 13.5154Z" fill="#FC1200"/>
<path d="M5.42918 7C2.43567 7 0 9.32946 0 12.1917C0 13.5547 0.621302 15.3674 1.8466 17.5794C2.83064 19.3555 3.96907 20.9615 4.56119 21.7606C4.66124 21.8971 4.79207 22.0082 4.94305 22.0847C5.09403 22.1612 5.26092 22.2011 5.4302 22.2011C5.59947 22.2011 5.76637 22.1612 5.91735 22.0847C6.06833 22.0082 6.19915 21.8971 6.29921 21.7606C6.89031 20.9615 8.02976 19.3555 9.0138 17.5794C10.2371 15.3681 10.8584 13.5554 10.8584 12.1917C10.8584 9.32946 8.42269 7 5.42918 7ZM5.42918 14.6009C4.99966 14.6009 4.57979 14.4735 4.22266 14.2349C3.86553 13.9962 3.58719 13.6571 3.42282 13.2602C3.25845 12.8634 3.21544 12.4268 3.29924 12.0055C3.38303 11.5842 3.58986 11.1973 3.89358 10.8936C4.19729 10.5899 4.58425 10.383 5.00551 10.2992C5.42677 10.2154 5.86342 10.2584 6.26024 10.4228C6.65706 10.5872 6.99623 10.8655 7.23486 11.2227C7.47349 11.5798 7.60085 11.9997 7.60085 12.4292C7.60022 13.005 7.37122 13.557 6.96409 13.9641C6.55696 14.3712 6.00495 14.6002 5.42918 14.6009Z" fill="#FC1200"/>
</svg>
