<svg width="60" height="27" viewBox="0 0 60 27" fill="none" xmlns="http://www.w3.org/2000/svg">
<path d="M42.7861 15.7021H44.5615V17.0293H42.7861V20H41.1514V17.0293H35.3242V16.0713L41.0547 7.20312H42.7861V15.7021ZM37.1699 15.7021H41.1514V9.42676L40.958 9.77832L37.1699 15.7021ZM46.2314 19.1475C46.2314 18.8662 46.3135 18.6318 46.4775 18.4443C46.6475 18.2568 46.8994 18.1631 47.2334 18.1631C47.5674 18.1631 47.8193 18.2568 47.9893 18.4443C48.165 18.6318 48.2529 18.8662 48.2529 19.1475C48.2529 19.417 48.165 19.6426 47.9893 19.8242C47.8193 20.0059 47.5674 20.0967 47.2334 20.0967C46.8994 20.0967 46.6475 20.0059 46.4775 19.8242C46.3135 19.6426 46.2314 19.417 46.2314 19.1475ZM58.5361 10.543C58.5361 11.1816 58.3662 11.75 58.0264 12.248C57.6924 12.7461 57.2383 13.1357 56.6641 13.417C57.332 13.7041 57.8594 14.123 58.2461 14.6738C58.6387 15.2246 58.835 15.8486 58.835 16.5459C58.835 17.6533 58.46 18.5352 57.71 19.1914C56.9658 19.8477 55.9844 20.1758 54.7656 20.1758C53.5352 20.1758 52.5479 19.8477 51.8037 19.1914C51.0654 18.5293 50.6963 17.6475 50.6963 16.5459C50.6963 15.8545 50.8838 15.2305 51.2588 14.6738C51.6396 14.1172 52.1641 13.6953 52.832 13.4082C52.2637 13.127 51.8154 12.7373 51.4873 12.2393C51.1592 11.7412 50.9951 11.1758 50.9951 10.543C50.9951 9.46484 51.3408 8.60938 52.0322 7.97656C52.7236 7.34375 53.6348 7.02734 54.7656 7.02734C55.8906 7.02734 56.7988 7.34375 57.4902 7.97656C58.1875 8.60938 58.5361 9.46484 58.5361 10.543ZM57.209 16.5107C57.209 15.7959 56.9805 15.2129 56.5234 14.7617C56.0723 14.3105 55.4805 14.085 54.748 14.085C54.0156 14.085 53.4268 14.3076 52.9814 14.7529C52.542 15.1982 52.3223 15.7842 52.3223 16.5107C52.3223 17.2373 52.5361 17.8086 52.9639 18.2246C53.3975 18.6406 53.998 18.8486 54.7656 18.8486C55.5273 18.8486 56.125 18.6406 56.5586 18.2246C56.9922 17.8027 57.209 17.2314 57.209 16.5107ZM54.7656 8.36328C54.127 8.36328 53.6084 8.5625 53.21 8.96094C52.8174 9.35352 52.6211 9.88965 52.6211 10.5693C52.6211 11.2197 52.8145 11.7471 53.2012 12.1514C53.5938 12.5498 54.1152 12.749 54.7656 12.749C55.416 12.749 55.9346 12.5498 56.3213 12.1514C56.7139 11.7471 56.9102 11.2197 56.9102 10.5693C56.9102 9.91895 56.708 9.38867 56.3037 8.97852C55.8994 8.56836 55.3867 8.36328 54.7656 8.36328Z" fill="black"/>
<path d="M12.3829 3.46353C12.5325 3.00287 13.1843 3.00287 13.3339 3.46353L15.4403 9.9463C15.5072 10.1523 15.6992 10.2918 15.9158 10.2918H22.7322C23.2166 10.2918 23.418 10.9116 23.0261 11.1963L17.5115 15.2029C17.3363 15.3302 17.263 15.5559 17.3299 15.7619L19.4363 22.2447C19.586 22.7053 19.0587 23.0884 18.6669 22.8037L13.1523 18.7971C12.977 18.6698 12.7397 18.6698 12.5645 18.7971L7.04993 22.8037C6.65807 23.0884 6.13083 22.7053 6.2805 22.2447L8.38689 15.7619C8.45382 15.5559 8.38049 15.3302 8.20525 15.2029L2.69067 11.1963C2.29881 10.9116 2.5002 10.2918 2.98456 10.2918H9.80096C10.0176 10.2918 10.2095 10.1523 10.2765 9.9463L12.3829 3.46353Z" fill="#FFC700"/>
</svg>
