<svg width="72" height="30" viewBox="0 0 72 30" fill="none" xmlns="http://www.w3.org/2000/svg">
<path opacity="0.6" d="M32.9678 17.4883C32.792 18.9922 32.2354 20.1543 31.2979 20.9746C30.3669 21.7884 29.1266 22.1953 27.5771 22.1953C25.8975 22.1953 24.5498 21.5931 23.5342 20.3887C22.5251 19.1842 22.0205 17.5729 22.0205 15.5547V14.1875C22.0205 12.8659 22.2549 11.7038 22.7236 10.7012C23.1989 9.69857 23.8695 8.93034 24.7354 8.39648C25.6012 7.85612 26.6038 7.58594 27.7432 7.58594C29.2536 7.58594 30.4645 8.00911 31.376 8.85547C32.2874 9.69531 32.818 10.8607 32.9678 12.3516H31.083C30.9202 11.2188 30.5654 10.3984 30.0186 9.89062C29.4782 9.38281 28.7197 9.12891 27.7432 9.12891C26.5452 9.12891 25.6045 9.57161 24.9209 10.457C24.2438 11.3424 23.9053 12.6022 23.9053 14.2363V15.6133C23.9053 17.1562 24.2275 18.3835 24.8721 19.2949C25.5166 20.2064 26.4183 20.6621 27.5771 20.6621C28.6188 20.6621 29.4163 20.4277 29.9697 19.959C30.5296 19.4837 30.9007 18.6602 31.083 17.4883H32.9678ZM37.0596 12.7129C37.8604 11.7298 38.902 11.2383 40.1846 11.2383C42.4176 11.2383 43.5439 12.498 43.5635 15.0176V22H41.7568V15.0078C41.7503 14.2461 41.5745 13.6829 41.2295 13.3184C40.891 12.9538 40.3604 12.7715 39.6377 12.7715C39.0518 12.7715 38.5374 12.9277 38.0947 13.2402C37.652 13.5527 37.307 13.9629 37.0596 14.4707V22H35.2529V7H37.0596V12.7129ZM48.2314 22H46.4248V11.4336H48.2314V22ZM46.2783 8.63086C46.2783 8.33789 46.3662 8.09049 46.542 7.88867C46.7243 7.68685 46.9912 7.58594 47.3428 7.58594C47.6943 7.58594 47.9613 7.68685 48.1436 7.88867C48.3258 8.09049 48.417 8.33789 48.417 8.63086C48.417 8.92383 48.3258 9.16797 48.1436 9.36328C47.9613 9.55859 47.6943 9.65625 47.3428 9.65625C46.9912 9.65625 46.7243 9.55859 46.542 9.36328C46.3662 9.16797 46.2783 8.92383 46.2783 8.63086ZM52.8408 11.4336L52.8994 12.7617C53.7067 11.7461 54.7614 11.2383 56.0635 11.2383C58.2965 11.2383 59.4229 12.498 59.4424 15.0176V22H57.6357V15.0078C57.6292 14.2461 57.4535 13.6829 57.1084 13.3184C56.7699 12.9538 56.2393 12.7715 55.5166 12.7715C54.9307 12.7715 54.4163 12.9277 53.9736 13.2402C53.5309 13.5527 53.1859 13.9629 52.9385 14.4707V22H51.1318V11.4336H52.8408ZM68.6904 22C68.5863 21.7917 68.5016 21.4206 68.4365 20.8867C67.5967 21.7591 66.5941 22.1953 65.4287 22.1953C64.387 22.1953 63.5309 21.9023 62.8604 21.3164C62.1963 20.724 61.8643 19.9753 61.8643 19.0703C61.8643 17.9701 62.2809 17.1172 63.1143 16.5117C63.9541 15.8997 65.1325 15.5938 66.6494 15.5938H68.4072V14.7637C68.4072 14.1322 68.2184 13.6309 67.8408 13.2598C67.4632 12.8822 66.9066 12.6934 66.1709 12.6934C65.5264 12.6934 64.986 12.8561 64.5498 13.1816C64.1136 13.5072 63.8955 13.901 63.8955 14.3633H62.0791C62.0791 13.8359 62.2646 13.3281 62.6357 12.8398C63.0133 12.3451 63.5212 11.9544 64.1592 11.668C64.8037 11.3815 65.5101 11.2383 66.2783 11.2383C67.4958 11.2383 68.4495 11.5443 69.1396 12.1562C69.8298 12.7617 70.1878 13.5983 70.2139 14.666V19.5293C70.2139 20.4993 70.3376 21.2708 70.585 21.8438V22H68.6904ZM65.6924 20.623C66.2588 20.623 66.7959 20.4766 67.3037 20.1836C67.8115 19.8906 68.1794 19.5098 68.4072 19.041V16.873H66.9912C64.7777 16.873 63.6709 17.5208 63.6709 18.8164C63.6709 19.3828 63.8597 19.8255 64.2373 20.1445C64.6149 20.4635 65.0999 20.623 65.6924 20.623Z" fill="black"/>
<path d="M5.42879 13.5146C6.02848 13.5146 6.51463 13.0285 6.51463 12.4288C6.51463 11.8291 6.02848 11.343 5.42879 11.343C4.8291 11.343 4.34296 11.8291 4.34296 12.4288C4.34296 13.0285 4.8291 13.5146 5.42879 13.5146Z" fill="#FC1200"/>
<path d="M5.42918 7C2.43567 7 0 9.32946 0 12.1917C0 13.5547 0.621302 15.3674 1.8466 17.5794C2.83064 19.3555 3.96907 20.9615 4.56119 21.7606C4.66124 21.8971 4.79207 22.0082 4.94305 22.0847C5.09403 22.1612 5.26092 22.2011 5.4302 22.2011C5.59947 22.2011 5.76637 22.1612 5.91735 22.0847C6.06833 22.0082 6.19915 21.8971 6.29921 21.7606C6.89031 20.9615 8.02976 19.3555 9.0138 17.5794C10.2371 15.3681 10.8584 13.5554 10.8584 12.1917C10.8584 9.32946 8.42269 7 5.42918 7ZM5.42918 14.6009C4.99966 14.6009 4.57979 14.4735 4.22266 14.2349C3.86553 13.9962 3.58719 13.6571 3.42282 13.2602C3.25845 12.8634 3.21544 12.4268 3.29924 12.0055C3.38303 11.5842 3.58986 11.1973 3.89358 10.8936C4.19729 10.5899 4.58425 10.383 5.00551 10.2992C5.42677 10.2154 5.86342 10.2584 6.26024 10.4228C6.65706 10.5872 6.99623 10.8655 7.23486 11.2227C7.47349 11.5798 7.60085 11.9997 7.60085 12.4292C7.60022 13.005 7.37122 13.557 6.96409 13.9641C6.55696 14.3712 6.00495 14.6002 5.42918 14.6009Z" fill="#FC1200"/>
</svg>
