<svg width="55" height="30" viewBox="0 0 55 30" fill="none" xmlns="http://www.w3.org/2000/svg">
<path opacity="0.6" d="M24.5205 22H22.6455V7.78125H24.5205V22ZM32.7822 13.0547C32.5088 13.0091 32.2126 12.9863 31.8936 12.9863C30.7087 12.9863 29.9046 13.4909 29.4814 14.5V22H27.6748V11.4336H29.4326L29.4619 12.6543C30.0544 11.7103 30.8942 11.2383 31.9814 11.2383C32.333 11.2383 32.5999 11.2839 32.7822 11.375V13.0547ZM40.585 22C40.4808 21.7917 40.3962 21.4206 40.3311 20.8867C39.4912 21.7591 38.4886 22.1953 37.3232 22.1953C36.2816 22.1953 35.4255 21.9023 34.7549 21.3164C34.0908 20.724 33.7588 19.9753 33.7588 19.0703C33.7588 17.9701 34.1755 17.1172 35.0088 16.5117C35.8486 15.8997 37.027 15.5938 38.5439 15.5938H40.3018V14.7637C40.3018 14.1322 40.113 13.6309 39.7354 13.2598C39.3577 12.8822 38.8011 12.6934 38.0654 12.6934C37.4209 12.6934 36.8805 12.8561 36.4443 13.1816C36.0081 13.5072 35.79 13.901 35.79 14.3633H33.9736C33.9736 13.8359 34.1592 13.3281 34.5303 12.8398C34.9079 12.3451 35.4157 11.9544 36.0537 11.668C36.6982 11.3815 37.4046 11.2383 38.1729 11.2383C39.3903 11.2383 40.3441 11.5443 41.0342 12.1562C41.7243 12.7617 42.0824 13.5983 42.1084 14.666V19.5293C42.1084 20.4993 42.2321 21.2708 42.4795 21.8438V22H40.585ZM37.5869 20.623C38.1533 20.623 38.6904 20.4766 39.1982 20.1836C39.7061 19.8906 40.0739 19.5098 40.3018 19.041V16.873H38.8857C36.6722 16.873 35.5654 17.5208 35.5654 18.8164C35.5654 19.3828 35.7542 19.8255 36.1318 20.1445C36.5094 20.4635 36.9945 20.623 37.5869 20.623ZM46.6494 11.4336L46.708 12.7617C47.5153 11.7461 48.57 11.2383 49.8721 11.2383C52.1051 11.2383 53.2314 12.498 53.251 15.0176V22H51.4443V15.0078C51.4378 14.2461 51.262 13.6829 50.917 13.3184C50.5785 12.9538 50.0479 12.7715 49.3252 12.7715C48.7393 12.7715 48.2249 12.9277 47.7822 13.2402C47.3395 13.5527 46.9945 13.9629 46.7471 14.4707V22H44.9404V11.4336H46.6494Z" fill="black"/>
<path d="M5.43014 13.5154C6.02983 13.5154 6.51598 13.0293 6.51598 12.4296C6.51598 11.8299 6.02983 11.3438 5.43014 11.3438C4.83045 11.3438 4.34431 11.8299 4.34431 12.4296C4.34431 13.0293 4.83045 13.5154 5.43014 13.5154Z" fill="#FC1200"/>
<path d="M5.42918 7C2.43567 7 0 9.32946 0 12.1917C0 13.5547 0.621302 15.3674 1.8466 17.5794C2.83064 19.3555 3.96907 20.9615 4.56119 21.7606C4.66124 21.8971 4.79207 22.0082 4.94305 22.0847C5.09403 22.1612 5.26092 22.2011 5.4302 22.2011C5.59947 22.2011 5.76637 22.1612 5.91735 22.0847C6.06833 22.0082 6.19915 21.8971 6.29921 21.7606C6.89031 20.9615 8.02976 19.3555 9.0138 17.5794C10.2371 15.3681 10.8584 13.5554 10.8584 12.1917C10.8584 9.32946 8.42269 7 5.42918 7ZM5.42918 14.6009C4.99966 14.6009 4.57979 14.4735 4.22266 14.2349C3.86553 13.9962 3.58719 13.6571 3.42282 13.2602C3.25845 12.8634 3.21544 12.4268 3.29924 12.0055C3.38303 11.5842 3.58986 11.1973 3.89358 10.8936C4.19729 10.5899 4.58425 10.383 5.00551 10.2992C5.42677 10.2154 5.86342 10.2584 6.26024 10.4228C6.65706 10.5872 6.99623 10.8655 7.23486 11.2227C7.47349 11.5798 7.60085 11.9997 7.60085 12.4292C7.60022 13.005 7.37122 13.557 6.96409 13.9641C6.55696 14.3712 6.00495 14.6002 5.42918 14.6009Z" fill="#FC1200"/>
</svg>
